<?xml version="1.0" encoding="utf-8"?>
<!-- Generator: Adobe Illustrator 26.0.2, SVG Export Plug-In . SVG Version: 6.00 Build 0)  -->
<svg version="1.1" id="Layer_1" xmlns="http://www.w3.org/2000/svg" xmlns:xlink="http://www.w3.org/1999/xlink" x="0px" y="0px"
	 viewBox="0 0 647.75 612.32" style="enable-background:new 0 0 647.75 612.32;" xml:space="preserve">
<style type="text/css">
	.st0{fill:#FFFFFF;}
</style>
<path class="st0" d="M306.18,612.32c-13.67,0-26.52-5.33-36.2-14.98L14.99,342.32C5.31,332.65,0,319.81,0,306.16
	c0-13.65,5.31-26.49,14.97-36.15L269.98,14.99C279.65,5.31,292.49,0,306.16,0c13.65,0,26.51,5.31,36.16,14.99
	c19.93,19.93,19.95,52.38,0,72.31l-167.7,167.72H596.6c28.21,0,51.15,22.94,51.15,51.15s-22.94,51.15-51.15,51.15H174.63
	l167.7,167.7c9.66,9.66,14.99,22.51,14.99,36.16c0,13.67-5.33,26.52-14.99,36.18C332.67,607.01,319.83,612.32,306.18,612.32
	L306.18,612.32z"/>
</svg>
