<?xml version="1.0" encoding="utf-8"?>
<!-- Generator: Adobe Illustrator 26.0.2, SVG Export Plug-In . SVG Version: 6.00 Build 0)  -->
<svg version="1.1" id="Layer_1" xmlns="http://www.w3.org/2000/svg" xmlns:xlink="http://www.w3.org/1999/xlink" x="0px" y="0px"
	 viewBox="0 0 500 500" style="enable-background:new 0 0 500 500;" xml:space="preserve">
<g>
	<path d="M500,119.21c-2.59,12.21-5.3,24.4-7.76,36.63c-9.58,47.79-18.94,95.63-28.66,143.39c-6.42,31.56-31.25,51.5-63.7,51.52
		c-75.66,0.06-151.33-0.52-226.99,0.26c-33.07,0.34-61.27-23.09-65.65-57.92c-5.78-45.95-13.23-91.7-19.96-137.53
		c-4.39-29.91-8.78-59.83-13.1-89.75c-1.13-7.83-2.42-9.12-10.19-9.13C50,56.68,36.01,56.88,22.02,56.59
		C11.03,56.36,2.5,48.81,0.39,38.19c-1.91-9.61,3.34-19.92,12.51-24.17c2.18-1.01,4.64-1.97,6.98-1.99
		c17.57-0.1,35.22-1.02,52.68,0.35c24.71,1.95,41.95,19.54,45.56,44.07c1.54,10.45,3.39,20.87,4.6,31.36
		c0.47,4.02,1.91,4.95,5.74,4.94c64.27-0.11,128.55-0.08,192.82-0.08c49.95,0,99.91,0.23,149.86-0.15
		c13.92-0.11,24.02,4.2,28.86,17.89C500,113.35,500,116.28,500,119.21z"/>
	<path d="M378.7,488.36c-32.08-0.09-58.32-26.46-58.22-58.5c0.1-32.1,26.44-58.32,58.52-58.24c31.68,0.08,58.35,26.89,58.37,58.68
		C437.37,462.19,410.84,488.45,378.7,488.36z"/>
	<path d="M235.72,429.7c0.16,31.24-25.7,57.83-56.45,58.03c-31.34,0.21-57.23-25.44-57.36-56.82
		c-0.13-32.03,25.47-58.95,56.41-59.28C209.53,371.29,235.56,397.64,235.72,429.7z"/>
</g>
</svg>
