<svg xmlns="http://www.w3.org/2000/svg" width="32.845" height="19.856" viewBox="0 0 32.845 19.856">
  <g id="cash-01" transform="translate(-4.471 -2.711)">
    <path id="Path_23" data-name="Path 23" d="M37.19,22.1c-.347-.649-.692-1.3-1.05-1.941a1.723,1.723,0,0,1,.005-1.8c.286-.506.551-1.023.83-1.533a1.7,1.7,0,0,0,0-1.735c-.261-.476-.5-.962-.777-1.429a1.827,1.827,0,0,1-.007-2.012c.283-.477.534-.974.8-1.463a1.688,1.688,0,0,0,0-1.7c-.259-.477-.5-.966-.776-1.43A1.851,1.851,0,0,1,36.2,5c.367-.623.693-1.269,1.038-1.9.14-.258.077-.393-.229-.385-.09,0-.181,0-.271,0H5.049c-.078,0-.155,0-.233,0-.364.009-.415.091-.241.417.351.661.7,1.323,1.068,1.977a1.743,1.743,0,0,1-.006,1.838c-.288.5-.552,1.023-.829,1.533a1.685,1.685,0,0,0,0,1.7c.257.478.5.964.778,1.429a1.849,1.849,0,0,1,.009,2.047c-.284.477-.537.972-.8,1.462a1.677,1.677,0,0,0,0,1.667c.281.523.556,1.049.848,1.567a1.727,1.727,0,0,1,0,1.8c-.346.621-.678,1.248-1.015,1.873-.268.5-.243.539.319.539H30.633q3.142,0,6.283,0C37.365,22.565,37.4,22.5,37.19,22.1Z" transform="translate(0 0)" fill="#34bf49"/>
    <g id="Group_35" data-name="Group 35" transform="translate(16.49 7.43)">
      <path id="Path_24" data-name="Path 24" d="M127.915,55.93l1.381,1.841a5.037,5.037,0,0,1-2.915.905,5.156,5.156,0,0,1-3.091-.967,4.557,4.557,0,0,1-1.772-2.731H120.49v-1.12h.874a3.184,3.184,0,0,1-.016-.368,4.267,4.267,0,0,1,.016-.43h-.874v-1.12h1.059a4.993,4.993,0,0,1,7.685-2.776l-1.458,1.8a2.482,2.482,0,0,0-1.4-.414,2.18,2.18,0,0,0-1.219.368,2.525,2.525,0,0,0-.882,1.028h2.992v1.12h-3.314a4.254,4.254,0,0,0-.016.43,3.174,3.174,0,0,0,.016.368h3.314v1.12h-3.006a2.514,2.514,0,0,0,.867,1.043,2.161,2.161,0,0,0,1.25.383A2.643,2.643,0,0,0,127.915,55.93Z" transform="translate(-120.49 -48.26)" fill="#fff"/>
    </g>
  </g>
</svg>
