<?xml version="1.0" encoding="utf-8"?>
<!-- Generator: Adobe Illustrator 26.0.2, SVG Export Plug-In . SVG Version: 6.00 Build 0)  -->
<svg version="1.1" id="Layer_1" xmlns="http://www.w3.org/2000/svg" xmlns:xlink="http://www.w3.org/1999/xlink" x="0px" y="0px"
	 viewBox="0 0 1236.94 755.72" style="enable-background:new 0 0 1236.94 755.72;" xml:space="preserve">
<style type="text/css">
	.st0{fill:#34BF49;}
</style>
<g>
	<g>
		<path class="st0" d="M618.07,755.68c-113.44,0.01-219.82-27.87-319.49-81.72C215.85,629.26,144.56,570.3,82.7,499.72
			c-27.72-31.63-53.07-65.08-75.89-100.4c-9.1-14.08-9.1-28.8,0.1-42.82C78.76,246.95,168.94,156.29,283.04,90.7
			c80.42-46.23,166.59-75.67,258.95-86.22C658.21-8.8,770.2,7.5,877.95,52.95c76.91,32.44,145.63,77.65,207.58,133.39
			c55.58,50,103.12,106.85,144.11,169.27c9.8,14.92,9.69,30.02-0.11,44.95c-56.04,85.37-123.96,159.61-206.56,220
			C942,679.76,852.82,721.04,754.54,741.96c-39.03,8.31-78.55,12.94-118.48,13.71C630.06,755.78,624.07,755.68,618.07,755.68z
			 M618.61,679.74c0.04,0.42,0.09,0.83,0.13,1.25c26.54-2.24,53.23-3.35,79.59-6.94c88.89-12.11,170.68-43.81,245.98-92.29
			c81.78-52.65,149-120.4,205.28-199.38c2.32-3.25,2.37-5.42,0.03-8.71c-47.99-67.43-104.23-126.84-171.09-175.89
			c-67.41-49.45-141.32-85.2-222.73-104.99C684.05,75.35,611.54,71.6,538.48,81.86c-101.9,14.31-193.77,53.47-276.85,113.68
			C193.52,244.9,136.33,305.02,87.66,373.44c-2.39,3.36-2.52,5.65-0.06,9.09c28.41,39.64,59.61,76.85,94.63,110.85
			c51.29,49.81,108.25,91.58,172.41,123.44C437.82,658.13,525.72,679.33,618.61,679.74z"/>
		<path class="st0" d="M618.34,590.58c-117.41,0.45-213.8-96.52-212.53-214.92c1.23-114.5,94.11-208.45,209.2-210.32
			c119.87-1.95,217.96,95.91,216.27,215.76C829.65,496.88,734.6,591.15,618.34,590.58z M754.82,378.01
			c0.04-74.91-61.19-136.28-136.02-136.34c-75.81-0.06-136.41,61.12-136.52,137.82c-0.1,73.68,61.78,134.81,136.5,134.84
			C693.52,514.37,754.79,452.98,754.82,378.01z"/>
	</g>
</g>
</svg>
