<?xml version="1.0" encoding="utf-8"?>
<!-- Generator: Adobe Illustrator 26.0.2, SVG Export Plug-In . SVG Version: 6.00 Build 0)  -->
<svg version="1.1" id="Layer_1" xmlns="http://www.w3.org/2000/svg" xmlns:xlink="http://www.w3.org/1999/xlink" x="0px" y="0px"
	 viewBox="0 0 739.76 203.19" style="enable-background:new 0 0 739.76 203.19;" xml:space="preserve">
<style type="text/css">
	.st0{fill:#FFFFFF;}
</style>
<g>
	<g>
		<path class="st0" d="M619.59,29.29l-3.02,15.57c-12.09-12.39-27.35-18.59-45.79-18.59c-18.77,0-34.38,6.25-46.85,18.71
			c-12.47,12.47-18.71,28.13-18.71,46.95c0,8.41,1.26,16.22,3.75,23.37c1.76,5.14,4.21,9.92,7.25,14.41
			c2.22,3.27,4.79,6.37,7.71,9.29c12.47,12.57,28.08,18.84,46.85,18.84c18.13,0,33.25-6.12,45.34-18.36l2.54,15.34h20.93V29.29
			H619.59z M602.03,121.48c-7.66,7.81-17.43,11.74-29.29,11.74c-11.84,0-21.69-3.93-29.52-11.74c-7.83-7.83-11.74-17.63-11.74-29.42
			c0-7.76,1.79-14.76,5.34-21.03c3.58-6.3,8.49-11.21,14.76-14.76c6.3-3.58,13.3-5.36,21.06-5.36c11.91,0,21.74,3.88,29.39,11.64
			c7.68,7.73,11.51,17.56,11.51,29.39C613.54,103.8,609.71,113.65,602.03,121.48z"/>
	</g>
	<g>
		<path class="st0" d="M725.58,131.35c-7.61,0-13.43-2.01-17.46-6.04c-4.03-4.03-6.04-9.77-6.04-17.2V51.38h36.98V29.29h-37.2V0
			h-4.41l-43.73,46.5v4.89h22.57v58.81c0,9.14,1.76,17.08,5.34,23.83c3.58,6.75,8.69,11.89,15.34,15.47
			c6.67,3.55,14.58,5.34,23.73,5.34h19.07v-23.47H725.58z"/>
	</g>
	<g>
		<path class="st0" d="M116.01,30.68l-1.86,26.75c-5.44-8.99-12.75-16.12-21.96-21.41c-9.24-5.26-19.49-7.88-30.83-7.88
			c-17.2,0-31.71,5.97-43.58,17.88C5.92,57.96,0,72.62,0,89.97c0,17.66,5.87,32.39,17.66,44.18C29.44,145.91,44,151.8,61.36,151.8
			c7.3,0,14.23-1.08,20.83-3.25c6.57-2.17,12.42-5.26,17.53-9.29c5.11-4.03,9.47-8.77,13.02-14.18v14.18
			c0,16.72-4.38,29.82-13.12,39.29c-8.77,9.45-20.65,14.18-35.69,14.18c-10.86,0-20.3-2.57-28.36-7.68
			c-8.06-5.11-13.8-12.32-17.2-21.61H6.98c3.85,12.54,10.73,22.32,20.58,29.29c9.82,6.95,21.96,10.45,36.37,10.45
			c18.59,0,33.25-5.77,43.93-17.33c10.7-11.54,16.04-27.45,16.04-47.76V30.68H116.01z M98.56,126.47
			c-9.45,9.62-21.46,14.41-36.02,14.41c-14.58,0-26.7-4.84-36.4-14.53c-9.7-9.67-14.53-21.76-14.53-36.24
			c0-14.51,4.84-26.62,14.53-36.4s21.81-14.63,36.4-14.63c14.41,0,26.37,4.84,35.92,14.51c9.52,9.7,14.28,21.86,14.28,36.52
			C112.74,104.73,108.03,116.87,98.56,126.47z"/>
	</g>
	<g>
		<path class="st0" d="M273.39,92.99c0-18.44-5.79-33.88-17.43-46.27c-11.61-12.39-26.5-18.59-44.63-18.59
			c-17.98,0-33.05,6.22-45.21,18.71c-3.07,3.15-5.77,6.5-8.03,10.02c-6.83,10.43-10.23,22.57-10.23,36.35
			c0,18.76,6.04,34.38,18.14,46.85c12.09,12.47,27.2,18.71,45.34,18.71c13.02,0,24.56-3.38,34.63-10.1
			c0.78-0.53,1.54-1.06,2.29-1.64l-7.91-7.88c-0.55,0.4-1.13,0.78-1.71,1.13c-7.98,4.89-17.08,7.33-27.3,7.33
			c-9.45,0-18.06-2.12-25.82-6.4c-7.73-4.26-13.9-10.18-18.46-17.78c-4.58-7.58-7.18-16.27-7.81-26.04h113.92
			C273.31,95.54,273.39,94.08,273.39,92.99z M159.49,86.72c0.81-8.14,3-15.39,6.62-21.81c2.57-4.61,5.84-8.77,9.87-12.49
			c9.6-8.89,21.38-13.35,35.34-13.35c6.65,0,12.97,1.11,18.94,3.35c5.97,2.27,11.21,5.47,15.69,9.65
			c4.51,4.21,8.19,9.27,11.06,15.24c2.85,5.97,4.61,12.44,5.21,19.42H159.49z"/>
	</g>
	<g>
		<path class="st0" d="M341.52,145.53c-9.47,0-16.75-2.57-21.86-7.68c-5.11-5.11-7.68-12.39-7.68-21.84V41.16h42.31V30.68h-42.31
			V8.59h-2.09l-30.23,30v2.57h20.93v75.08c0,12.39,3.53,22.17,10.58,29.29c7.05,7.13,16.7,10.7,28.94,10.7h15.11v-10.7H341.52z"/>
	</g>
	<g>
		<g>
			<path class="st0" d="M443.96,18.85c0,3.7-3.11,9.05-6.48,13.74c-2.57,3.61-5.31,6.85-6.81,8.51c-0.58,0.66-1.62,0.66-2.24,0
				c-1.45-1.66-4.15-4.86-6.73-8.43c-3.36-4.69-6.52-10.09-6.52-13.82c0-7.93,6.43-14.36,14.36-14.36
				C437.52,4.49,443.96,10.92,443.96,18.85z"/>
		</g>
	</g>
	<g>
		<path class="st0" d="M450.28,128.63l17.48,17.48c-0.2,0.15-0.4,0.3-0.63,0.45c-10.86,7.51-23.25,11.28-37.2,11.28
			c-18.44,0-33.83-6.3-46.14-18.84c-7.81-7.96-13.15-17.15-15.99-27.61h26.67c2.22,5.29,5.49,9.75,9.77,13.42
			c6.9,5.89,15.47,8.84,25.69,8.84c4.96,0,9.6-0.73,13.95-2.22C446.15,130.7,448.29,129.74,450.28,128.63z"/>
	</g>
	<g>
		<path class="st0" d="M492.84,79.83H366.25c0.08-0.5,0.15-1.01,0.25-1.51c1.61-8.77,4.81-16.7,9.62-23.83
			c2.19-3.3,4.76-6.45,7.66-9.39c7.88-8.03,17-13.48,27.38-16.37c1.23,2.42,2.87,5.06,4.96,7.98c2.82,3.9,5.69,7.25,7.3,9.09
			c1.59,1.69,3.83,2.67,6.15,2.67c2.39,0,4.68-1.03,6.2-2.77c0.91-0.98,4.08-4.58,7.3-9.09c2.09-2.92,3.75-5.57,4.96-8.01
			c5.47,1.49,10.58,3.7,15.36,6.62c9.77,5.97,17.28,13.95,22.54,23.93c3.17,6.02,5.39,12.39,6.65,19.17
			C492.69,78.82,492.77,79.32,492.84,79.83z"/>
	</g>
	<g>
		<path class="st0" d="M493.85,92.29c0,2.32-0.15,5.19-0.45,8.59H365.8c-0.35-2.85-0.5-5.79-0.5-8.82c0-0.58,0-1.16,0.05-1.71H493.8
			C493.85,90.99,493.85,91.64,493.85,92.29z"/>
	</g>
</g>
</svg>
