<svg xmlns="http://www.w3.org/2000/svg" width="23.506" height="21.877" viewBox="0 0 23.506 21.877">
  <g id="Group_50" data-name="Group 50" transform="translate(-2885.5 2042.75)">
    <g id="Icon_feather-shopping-cart" data-name="Icon feather-shopping-cart" transform="translate(2886.5 -2041.75)">
      <path id="Path_42" data-name="Path 42" d="M13.955,30.978A.978.978,0,1,1,12.978,30,.978.978,0,0,1,13.955,30.978Z" transform="translate(-5.157 -12.078)" stroke="#000" stroke-linecap="round" stroke-linejoin="round" stroke-width="2"/>
      <path id="Path_43" data-name="Path 43" d="M30.455,30.978A.978.978,0,1,1,29.478,30,.978.978,0,0,1,30.455,30.978Z" transform="translate(-10.904 -12.078)" stroke="#000" stroke-linecap="round" stroke-linejoin="round" stroke-width="2"/>
      <path id="Path_44" data-name="Path 44" d="M1.5,1.5H5.41L8.03,14.589a1.955,1.955,0,0,0,1.955,1.574h9.5a1.955,1.955,0,0,0,1.955-1.574l1.564-8.2H6.388" transform="translate(-1.5 -1.5)" fill="none" stroke="#000" stroke-linecap="round" stroke-linejoin="round" stroke-width="2"/>
    </g>
    <path id="Path_46" data-name="Path 46" d="M2844.608-2033.974h16.045l-1.706,8.831-1.331.963h-6.471l-4.086-.244-1.272-1.24-.677-3.449-.5-2.342Z" transform="translate(47.176 -2.708)" stroke="#000" stroke-width="1"/>
  </g>
</svg>
