<svg id="home-01" xmlns="http://www.w3.org/2000/svg" width="21.14" height="21.137" viewBox="0 0 21.14 21.137">
  <path id="Path_12" data-name="Path 12" d="M10.283.04h.578a2.922,2.922,0,0,1,1.475.953q3.922,3.94,7.863,7.862a2.821,2.821,0,0,1,.941,1.506v.5a.394.394,0,0,0-.033.074,1.926,1.926,0,0,1-1.967,1.621h-.268v.281q0,2.983,0,5.965A2.275,2.275,0,0,1,16.5,21.175q-1.568,0-3.137,0c-.534,0-.761-.229-.761-.77q0-2.374,0-4.747a1.042,1.042,0,0,0-1.123-1.119c-.592,0-1.183,0-1.775,0A1.05,1.05,0,0,0,8.542,15.7q0,2.374,0,4.747a.641.641,0,0,1-.721.726c-1.066,0-2.133,0-3.2,0a2.65,2.65,0,0,1-.592-.063,2.253,2.253,0,0,1-1.755-2.254c0-2.016,0-4.032,0-6.047v-.23a.337.337,0,0,0-.064-.024c-.1,0-.206,0-.309-.005a1.9,1.9,0,0,1-1.628-.967A1.937,1.937,0,0,1,.637,9.169q4.078-4.08,8.155-8.162A2.963,2.963,0,0,1,10.283.04Z" transform="translate(0 -0.04)" fill="#151515"/>
</svg>
