<svg xmlns="http://www.w3.org/2000/svg" width="20.42" height="19.262" viewBox="0 0 20.42 19.262">
  <path id="Icon_ionic-md-arrow-round-back" data-name="Icon ionic-md-arrow-round-back" d="M24.275,14.1H11.857L16.673,9.5a1.919,1.919,0,0,0,0-2.623,1.716,1.716,0,0,0-2.507,0L6.147,14.649a1.767,1.767,0,0,0-.522,1.3v.023a1.767,1.767,0,0,0,.522,1.3l8.014,7.776a1.716,1.716,0,0,0,2.507,0,1.919,1.919,0,0,0,0-2.623l-4.816-4.607H24.269a1.817,1.817,0,0,0,1.776-1.857A1.8,1.8,0,0,0,24.275,14.1Z" transform="translate(-5.625 -6.33)" fill="#fff"/>
</svg>
