<svg xmlns="http://www.w3.org/2000/svg" width="23.987" height="32" viewBox="0 0 23.987 32">
  <path id="Path_36" data-name="Path 36" d="M21.319,2.691c.634.1,1.275.178,1.9.319a12.1,12.1,0,0,1,9.1,9.679,14.757,14.757,0,0,1-1.043,7.941A32.6,32.6,0,0,1,26.3,28.915a48.027,48.027,0,0,1-4.935,5.34,1.056,1.056,0,0,1-1.71,0,44.086,44.086,0,0,1-8.538-10.693,20.526,20.526,0,0,1-2.453-6.8,12.1,12.1,0,0,1,9.8-13.888c.408-.07.82-.122,1.23-.183Zm5.851,11.8a6.666,6.666,0,1,0-6.486,6.858A6.683,6.683,0,0,0,27.17,14.494Z" transform="translate(-8.509 -2.69)"/>
</svg>
