<?xml version="1.0" encoding="utf-8"?>
<!-- Generator: Adobe Illustrator 26.0.2, SVG Export Plug-In . SVG Version: 6.00 Build 0)  -->
<svg version="1.1" id="Layer_1" xmlns="http://www.w3.org/2000/svg" xmlns:xlink="http://www.w3.org/1999/xlink" x="0px" y="0px"
	 viewBox="0 0 225.1 145.07" style="enable-background:new 0 0 225.1 145.07;" xml:space="preserve">
<style type="text/css">
	.st0{fill:#FFFFFF;}
</style>
<g>
	<path class="st0" d="M112.87,104.38c9.11-10.63,18.05-21.05,26.98-31.47c18.71-21.83,37.43-43.64,56.1-65.49
		c3.91-4.58,8.63-7.25,14.73-6.54c6.18,0.72,10.7,4.01,13.09,9.84c2.46,5.99,1.43,11.57-2.67,16.47
		c-6.83,8.14-13.8,16.15-20.71,24.22c-24.71,28.86-49.45,57.7-74.12,86.6c-4.59,5.38-10.11,8.5-17.12,6.42
		c-3.28-0.97-6.73-3.07-8.95-5.65C68.03,101.48,36.05,64.04,4.06,26.6C-1.98,19.54-1.17,9.56,5.73,3.81
		c7.06-5.89,16.67-4.88,22.99,2.5c27.17,31.69,54.32,63.41,81.48,95.11C110.99,102.35,111.83,103.24,112.87,104.38z"/>
</g>
</svg>
