<?xml version="1.0" encoding="utf-8"?>
<!-- Generator: Adobe Illustrator 26.0.2, SVG Export Plug-In . SVG Version: 6.00 Build 0)  -->
<svg version="1.1" id="Layer_1" xmlns="http://www.w3.org/2000/svg" xmlns:xlink="http://www.w3.org/1999/xlink" x="0px" y="0px"
	 viewBox="0 0 500 500" style="enable-background:new 0 0 500 500;" xml:space="preserve">
<g>
	<path d="M118.66,500c-5.68-1.19-11.45-2.04-17.01-3.61c-35.64-10.04-58.16-37.51-59.73-74.92c-1.62-38.64,2.62-76.73,17.3-112.91
		c9.48-23.36,23.25-43.57,46.33-55.91c14.23-7.61,29.5-11.25,45.47-10.92c5.04,0.1,10.34,2.65,14.94,5.15
		c7.41,4.03,14.28,9.04,21.47,13.48c41.82,25.82,83.66,25.8,125.45-0.09c5.8-3.6,11.73-7.07,17.18-11.15c10-7.49,21-8.43,32.89-6.69
		c32.43,4.77,55.34,22.53,70.78,50.87c13.79,25.3,19.99,52.77,22.76,81.09c1.42,14.54,2.09,29.22,1.91,43.83
		c-0.52,43.62-30.46,76.08-73.85,80.86c-1.08,0.12-2.12,0.6-3.17,0.91C293.8,500,206.23,500,118.66,500z"/>
	<path d="M367.43,120.23c0.44,65.88-53.93,120.54-120.18,120.73c-66.23,0.19-120.79-54.41-120.82-120.11
		C126.39,54.38,179.54,0.5,246.39,0C313-0.49,367.02,53.16,367.43,120.23z"/>
</g>
</svg>
