<svg xmlns="http://www.w3.org/2000/svg" width="224.126" height="190.712" viewBox="0 0 224.126 190.712">
  <g id="Group_71" data-name="Group 71" transform="translate(-87 -137.263)">
    <g id="Group_69" data-name="Group 69" transform="translate(87 140.626)">
      <path id="Path_49" data-name="Path 49" d="M738.82,655.607l-.282-.106c-.062-.023-6.232-2.387-9.123-7.748s-1.475-11.815-1.461-11.879l.067-.294.282.106c.062.023,6.232,2.387,9.123,7.748s1.475,11.815,1.461,11.879Zm-8.942-8.1c2.444,4.532,7.32,6.855,8.555,7.386.235-1.324.972-6.679-1.47-11.206s-7.319-6.854-8.555-7.386C728.173,637.623,727.437,642.977,729.878,647.5Z" transform="translate(-536.335 -468.507)" fill="#3f3d56"/>
      <path id="Path_50" data-name="Path 50" d="M710.349,668.6c5.194,3.125,7.195,9.333,7.195,9.333s-6.421,1.141-11.616-1.985-7.195-9.332-7.195-9.332S705.155,665.476,710.349,668.6Z" transform="translate(-515.059 -491.235)" fill="#34bf49"/>
      <path id="Path_51" data-name="Path 51" d="M423.319,340.807a3.291,3.291,0,0,1,4.852-.756,3.126,3.126,0,0,1,.318.3l12.936-1.883.72-9.727a2.821,2.821,0,0,1,5.628.416c0,.017,0,.035,0,.052l-1.261,13.649-.006.03a2.556,2.556,0,0,1-2.47,1.793l-15.215-.263a3.078,3.078,0,0,1-.191.261,3.291,3.291,0,0,1-4.907.2q-.1-.1-.186-.208A3.3,3.3,0,0,1,423.319,340.807Z" transform="translate(-311.655 -240.401)" fill="#ffb7b7"/>
      <path id="Path_52" data-name="Path 52" d="M508.738,657.572h-3.69l-1.755-14.231h5.445Z" transform="translate(-370.994 -474.228)" fill="#ffb7b7"/>
      <path id="Path_53" data-name="Path 53" d="M494.225,697.677h-11.9v-.151a4.631,4.631,0,0,1,4.63-4.63h7.267Z" transform="translate(-355.54 -510.756)" fill="#2f2e41"/>
      <path id="Path_54" data-name="Path 54" d="M594.748,646.984l-3.492,1.191L585,635.273l5.154-1.758Z" transform="translate(-431.223 -466.985)" fill="#ffb7b7"/>
      <path id="Path_55" data-name="Path 55" d="M597.453,683.786l-11.26,3.84-.049-.142a4.631,4.631,0,0,1,2.888-5.877h0l6.877-2.345Z" transform="translate(-431.883 -500.706)" fill="#2f2e41"/>
      <path id="Path_56" data-name="Path 56" d="M505.626,221.784s-3.672-1.213-6.033,3.638a93.837,93.837,0,0,1-6.033,10.187l2.1.485s.525-3.4,1.836-3.881l-.525,4.366s15.738,5.094,22.82-.485l-.262-1.7a1.574,1.574,0,0,1,1.049,1.7l.787-.728a13.289,13.289,0,0,0-3.148-3.4c-1.55-1.274-2.082-3.7-2.265-5.212a6.073,6.073,0,0,0-1.57-3.434C512.813,221.644,509.954,219.857,505.626,221.784Z" transform="translate(-363.819 -162.869)" fill="#2f2e41"/>
      <circle id="Ellipse_20" data-name="Ellipse 20" cx="6.707" cy="6.707" r="6.707" transform="translate(136.453 62.45)" fill="#ffb7b7"/>
      <path id="Path_57" data-name="Path 57" d="M499.192,308.473l-1.219-.406s-2.439,1.016-2.439,2.845-.406,9.146-.406,9.146l5.488.61Z" transform="translate(-364.974 -227.086)" fill="#6f6f6f"/>
      <path id="Path_58" data-name="Path 58" d="M583.809,362.16a3.171,3.171,0,0,1-.073-4.139l-3.423-28.67a2.556,2.556,0,1,1,5.1-.263c0,.009,0,.019,0,.028l3.063,28.7a3.092,3.092,0,0,1,.306.358,3.192,3.192,0,0,1-.716,4.457c-.035.025-.071.05-.107.074h0a3.2,3.2,0,0,1-2.7.39A3.156,3.156,0,0,1,583.809,362.16Z" transform="translate(-427.765 -240.795)" fill="#ffb7b7"/>
      <path id="Path_59" data-name="Path 59" d="M581.695,318.348l5.488-.61s-.406-7.317-.406-9.146-2.439-2.845-2.439-2.845l-1.22.406Z" transform="translate(-428.786 -225.376)" fill="#6f6f6f"/>
      <path id="Path_60" data-name="Path 60" d="M499.435,392.294a43.859,43.859,0,0,0-4.675,18.912c0,10.366-.407,57.925-.407,57.925s6.1,2.845,9.756-.61l3.252-52.641,12.8,51.624s6.1,1.219,8.943-.813l-5.488-35.974s-2.236-33.739-8.333-36.178S499.435,392.294,499.435,392.294Z" transform="translate(-364.404 -289.17)" fill="#2f2e41"/>
      <path id="Path_61" data-name="Path 61" d="M516.361,240.848a18.367,18.367,0,0,0,5.568-6.052s4.357,4.842,7.02,5.084.242-5.81.242-5.81l-4.841-1.21-4.6.484-3.631,2.421Z" transform="translate(-380.448 -171.648)" fill="#2f2e41"/>
      <path id="Path_62" data-name="Path 62" d="M522.821,301.076s.194-.1-11.381.318l-4.844,1.334-.644.177s.61,12.195,2.236,14.43,1.219,3.455.813,3.658-1.423-.2-.813.813,1.423.406.61,1.016-1.219,2.845-1.219,2.845l17.886,2.439s.61-7.927,2.236-11.992a52.379,52.379,0,0,0,2.032-5.691l-1.219-8.13Z" transform="translate(-372.953 -221.925)" fill="#6f6f6f"/>
      <path id="Path_63" data-name="Path 63" d="M179.029,44.483H178V16.307A16.307,16.307,0,0,0,161.693,0H102A16.307,16.307,0,0,0,85.691,16.307V170.882A16.307,16.307,0,0,0,102,187.19h59.694A16.307,16.307,0,0,0,178,170.882h0V64.539h1.029Z" transform="translate(-63.165 0)" fill="#2f2e41"/>
      <path id="Path_64" data-name="Path 64" d="M187.149,28.321V182.669a12.168,12.168,0,0,1-12.157,12.179h-60a12.17,12.17,0,0,1-12.179-12.161V28.321a12.17,12.17,0,0,1,12.161-12.179h7.293a5.785,5.785,0,0,0,5.357,7.97h34.2a5.785,5.785,0,0,0,5.357-7.97h7.791A12.168,12.168,0,0,1,187.149,28.3v.022Z" transform="translate(-75.785 -11.899)" fill="#fff"/>
      <path id="Path_65" data-name="Path 65" d="M187.149,51.156V45.9h-7.957v-29a12.141,12.141,0,0,0-4.222-.752h-1.036V45.9h-27.6V24.113h-5.257V45.9H117.944V16.143H114.99a12.063,12.063,0,0,0-2.3.218V45.9h-9.876v5.257h9.876v12.16l-9.876,5.7v6.072l9.876-5.7V105.57h-9.876v5.257h9.876v52.311h-9.876V168.4h9.876v26.234a12.066,12.066,0,0,0,2.3.218h2.955V168.4h23.132v26.452h5.257V168.4h27.6v26.452h1.036a12.141,12.141,0,0,0,4.222-.752V168.4h7.957v-5.257h-7.957V140.268h7.886v-5.257h-7.886V110.827h7.957V105.57h-7.957V73.5h7.957V68.243h-7.957V51.156Zm-53.4,0h0l-15.806,9.127h0V51.156Zm-15.806,15.2h0L141.076,53V105.57H117.944Zm0,96.785V110.827h23.132v52.311Zm55.991,0h-27.6V140.268h27.6Zm0-28.127h-27.6V110.827h27.6Zm0-29.441h-27.6V73.5h27.6Zm0-37.327h-27.6V51.156h27.6Z" transform="translate(-75.785 -11.899)" fill="#e5e5e5"/>
      <path id="Path_66" data-name="Path 66" d="M270.84,129.942c0,16.7-30.23,53.888-30.23,53.888s-30.23-37.192-30.23-53.888a30.23,30.23,0,1,1,60.459,0Z" transform="translate(-155.079 -73.501)" fill="#34bf49"/>
      <path id="Path_67" data-name="Path 67" d="M293.132,159.588a17.875,17.875,0,1,1-17.875-17.875h0a17.867,17.867,0,0,1,17.875,17.859Z" transform="translate(-189.725 -104.461)" fill="#fff"/>
      <circle id="Ellipse_21" data-name="Ellipse 21" cx="6.659" cy="6.659" r="6.659" transform="translate(78.811 48.864)" fill="#34bf49"/>
      <path id="Path_68" data-name="Path 68" d="M308.05,248.769a17.894,17.894,0,0,1-19.208,0,9.989,9.989,0,0,1,19.207,0Z" transform="translate(-212.915 -178.036)" fill="#34bf49"/>
      <circle id="Ellipse_22" data-name="Ellipse 22" cx="8.149" cy="8.149" r="8.149" transform="translate(77.383 115.849)" fill="#34bf49"/>
      <path id="Path_69" data-name="Path 69" d="M211.608,711.238H.263a.263.263,0,1,1,0-.526H211.608a.263.263,0,1,1,0,.526Z" transform="translate(0 -523.89)" fill="#cbcbcb"/>
    </g>
    <path id="Icon_material-chat-bubble" data-name="Icon material-chat-bubble" d="M67.876,3H8.124A5.139,5.139,0,0,0,3,8.124V54.237L13.247,43.99H67.876A5.139,5.139,0,0,0,73,38.866V8.124A5.139,5.139,0,0,0,67.876,3Z" transform="translate(237.626 134.763)" fill="#151515" stroke="#34bf49" stroke-width="1"/>
    <text id="Now_you_get_it_" data-name="Now, you
 get it!" transform="translate(275.626 155.059)" fill="#34bf49" font-size="12" font-family="Poppins-Regular, Poppins"><tspan x="-26.826" y="0">Now, you</tspan><tspan x="-18.612" y="15" xml:space="preserve"> get it!</tspan></text>
  </g>
</svg>
