<svg xmlns="http://www.w3.org/2000/svg" width="21.495" height="21.505" viewBox="0 0 21.495 21.505">
  <g id="search-01" transform="translate(-0.148 -0.029)">
    <path id="Path_35" data-name="Path 35" d="M13.445,16.314a8.728,8.728,0,0,1-7.223.811,8.436,8.436,0,0,1-4.66-3.578,8.771,8.771,0,1,1,14.881-.235c.066.041.132.085.2.126a30.233,30.233,0,0,1,3.789,2.623,2.993,2.993,0,0,1,1.209,2.513,2.861,2.861,0,0,1-1.858,2.7,2.794,2.794,0,0,1-3.214-.6,14.124,14.124,0,0,1-1.517-1.891c-.529-.744-1-1.528-1.495-2.3C13.522,16.43,13.485,16.376,13.445,16.314ZM3.421,8.777A5.5,5.5,0,1,0,8.94,3.289,5.513,5.513,0,0,0,3.421,8.777Z" transform="translate(0 0)" fill="#fff"/>
  </g>
</svg>
